<svg width="779" height="45" viewBox="0 0 779 45" fill="none" xmlns="http://www.w3.org/2000/svg">
<g clip-path="url(#clip0_2_39652)">
<rect width="779" height="45" fill="#111311"/>
<path d="M753.32 22.5L779.301 45L727.339 45L753.32 22.5Z" fill="#171817"/>
<path d="M701.37 22.5L727.351 45L675.389 45L701.37 22.5Z" fill="#171817"/>
<path d="M649.42 22.5L675.401 45L623.439 45L649.42 22.5Z" fill="#171817"/>
<path d="M597.47 22.5L623.451 45L571.489 45L597.47 22.5Z" fill="#171817"/>
<path d="M545.52 22.5L571.501 45L519.539 45L545.52 22.5Z" fill="#171817"/>
<path d="M493.57 22.5L519.551 45L467.589 45L493.57 22.5Z" fill="#171817"/>
<path d="M441.62 22.5L467.601 45L415.639 45L441.62 22.5Z" fill="#171817"/>
<path d="M389.67 22.5L415.651 45L363.689 45L389.67 22.5Z" fill="#171817"/>
<path d="M337.72 22.5L363.701 45L311.739 45L337.72 22.5Z" fill="#171817"/>
<path d="M285.77 22.5L311.751 45L259.789 45L285.77 22.5Z" fill="#171817"/>
<path d="M233.82 22.5L259.801 45L207.839 45L233.82 22.5Z" fill="#171817"/>
<path d="M181.87 22.5L207.851 45L155.889 45L181.87 22.5Z" fill="#171817"/>
<path d="M129.92 22.5L155.901 45L103.939 45L129.92 22.5Z" fill="#171817"/>
<path d="M77.9698 22.5L103.951 45L51.9891 45L77.9698 22.5Z" fill="#171817"/>
<path d="M26.0199 22.5L52.0007 45L0.039135 45L26.0199 22.5Z" fill="#171817"/>
<path d="M-25.9301 22.5L0.0507088 45L-51.9108 45L-25.9301 22.5Z" fill="#171817"/>
<path d="M0 22.5L-25.9808 0L25.9808 0L0 22.5Z" fill="#171817"/>
<path d="M51.95 22.5L25.9692 0L77.9308 0L51.95 22.5Z" fill="#171817"/>
<path d="M103.9 22.5L77.9193 0L129.881 0L103.9 22.5Z" fill="#171817"/>
<path d="M155.85 22.5L129.869 0L181.831 0L155.85 22.5Z" fill="#171817"/>
<path d="M207.8 22.5L181.819 0L233.781 0L207.8 22.5Z" fill="#171817"/>
<path d="M259.75 22.5L233.769 0L285.731 0L259.75 22.5Z" fill="#171817"/>
<path d="M311.7 22.5L285.719 0L337.681 0L311.7 22.5Z" fill="#171817"/>
<path d="M363.65 22.5L337.669 0L389.631 0L363.65 22.5Z" fill="#171817"/>
<path d="M415.6 22.5L389.619 0L441.581 0L415.6 22.5Z" fill="#171817"/>
<path d="M467.55 22.5L441.569 0L493.531 0L467.55 22.5Z" fill="#171817"/>
<path d="M519.5 22.5L493.519 0L545.481 0L519.5 22.5Z" fill="#171817"/>
<path d="M571.45 22.5L545.469 0L597.431 0L571.45 22.5Z" fill="#171817"/>
<path d="M623.4 22.5L597.419 0L649.381 0L623.4 22.5Z" fill="#171817"/>
<path d="M675.35 22.5L649.369 0L701.331 0L675.35 22.5Z" fill="#171817"/>
<path d="M727.3 22.5L701.319 0L753.281 0L727.3 22.5Z" fill="#171817"/>
<path d="M779.25 22.5L753.269 0L805.231 0L779.25 22.5Z" fill="#171817"/>
<path d="M728.63 22L753.27 0.661439L777.91 22L728.63 22Z" fill="#111311" stroke="#111311"/>
<path d="M676.68 22L701.32 0.661439L725.96 22L676.68 22Z" fill="#111311" stroke="#111311"/>
<path d="M624.73 22L649.37 0.661439L674.01 22L624.73 22Z" fill="#111311" stroke="#111311"/>
<path d="M572.78 22L597.42 0.661439L622.06 22L572.78 22Z" fill="#111311" stroke="#111311"/>
<path d="M520.83 22L545.47 0.661439L570.11 22L520.83 22Z" fill="#111311" stroke="#111311"/>
<path d="M468.88 22L493.52 0.661439L518.16 22L468.88 22Z" fill="#111311" stroke="#111311"/>
<path d="M416.93 22L441.57 0.661439L466.21 22L416.93 22Z" fill="#111311" stroke="#111311"/>
<path d="M364.98 22L389.62 0.661439L414.26 22L364.98 22Z" fill="#111311" stroke="#111311"/>
<path d="M313.03 22L337.67 0.661439L362.31 22L313.03 22Z" fill="#111311" stroke="#111311"/>
<path d="M261.08 22L285.72 0.661439L310.36 22L261.08 22Z" fill="#111311" stroke="#111311"/>
<path d="M209.13 22L233.77 0.661439L258.41 22L209.13 22Z" fill="#111311" stroke="#111311"/>
<path d="M157.18 22L181.82 0.661439L206.46 22L157.18 22Z" fill="#111311" stroke="#111311"/>
<path d="M105.23 22L129.87 0.661439L154.51 22L105.23 22Z" fill="#111311" stroke="#111311"/>
<path d="M53.2802 22L77.9199 0.661439L102.56 22L53.2802 22Z" fill="#111311" stroke="#111311"/>
<path d="M1.3302 22L25.9698 0.661439L50.6095 22L1.3302 22Z" fill="#111311" stroke="#111311"/>
<path d="M-50.6198 22L-25.9802 0.661439L-1.34052 22L-50.6198 22Z" fill="#111311" stroke="#111311"/>
<path d="M24.6897 23L0.0500488 44.3386L-24.5896 23L24.6897 23Z" fill="#111311" stroke="#111311"/>
<path d="M76.6397 23L52.0001 44.3386L27.3604 23L76.6397 23Z" fill="#111311" stroke="#111311"/>
<path d="M128.59 23L103.95 44.3386L79.3104 23L128.59 23Z" fill="#111311" stroke="#111311"/>
<path d="M180.54 23L155.9 44.3386L131.26 23L180.54 23Z" fill="#111311" stroke="#111311"/>
<path d="M232.49 23L207.85 44.3386L183.21 23L232.49 23Z" fill="#111311" stroke="#111311"/>
<path d="M284.44 23L259.8 44.3386L235.16 23L284.44 23Z" fill="#111311" stroke="#111311"/>
<path d="M336.39 23L311.75 44.3386L287.11 23L336.39 23Z" fill="#111311" stroke="#111311"/>
<path d="M388.34 23L363.7 44.3386L339.06 23L388.34 23Z" fill="#111311" stroke="#111311"/>
<path d="M440.29 23L415.65 44.3386L391.01 23L440.29 23Z" fill="#111311" stroke="#111311"/>
<path d="M492.24 23L467.6 44.3386L442.96 23L492.24 23Z" fill="#111311" stroke="#111311"/>
<path d="M544.19 23L519.55 44.3386L494.91 23L544.19 23Z" fill="#111311" stroke="#111311"/>
<path d="M596.14 23L571.5 44.3386L546.86 23L596.14 23Z" fill="#111311" stroke="#111311"/>
<path d="M648.09 23L623.45 44.3386L598.81 23L648.09 23Z" fill="#111311" stroke="#111311"/>
<path d="M700.04 23L675.4 44.3386L650.76 23L700.04 23Z" fill="#111311" stroke="#111311"/>
<path d="M751.99 23L727.35 44.3386L702.71 23L751.99 23Z" fill="#111311" stroke="#111311"/>
<path d="M803.939 23L779.3 44.3386L754.66 23L803.939 23Z" fill="#111311" stroke="#111311"/>
</g>
<defs>
<clipPath id="clip0_2_39652">
<rect width="779" height="45" fill="white"/>
</clipPath>
</defs>
</svg>
